<svg width="1024" height="1024" viewBox="0 0 1024 1024" fill="none" xmlns="http://www.w3.org/2000/svg">
  <defs>
    <linearGradient id="bg" x1="140" y1="116" x2="874" y2="912" gradientUnits="userSpaceOnUse">
      <stop stop-color="#F9FCFF"/>
      <stop offset="1" stop-color="#DDE7F2"/>
    </linearGradient>
    <linearGradient id="accent" x1="330" y1="346" x2="720" y2="700" gradientUnits="userSpaceOnUse">
      <stop stop-color="#34D3C7"/>
      <stop offset="1" stop-color="#168BFF"/>
    </linearGradient>
  </defs>

  <rect x="72" y="72" width="880" height="880" rx="220" fill="url(#bg)"/>
  <rect x="76" y="76" width="872" height="872" rx="216" stroke="#FFFFFF" stroke-opacity="0.82" stroke-width="8"/>

  <path d="M458 300H304V724H458V648H380V376H458V300Z" fill="#12263D"/>
  <path d="M566 300H720V724H566V648H644V376H566V300Z" fill="#12263D"/>

  <rect x="324" y="364" width="266" height="78" rx="39" fill="url(#accent)"/>
  <path d="M590 328L740 403L590 478V328Z" fill="url(#accent)"/>

  <rect x="434" y="582" width="266" height="78" rx="39" fill="url(#accent)"/>
  <path d="M434 546L284 621L434 696V546Z" fill="url(#accent)"/>

</svg>
